:version 1.10
:name ASF
:units
  mass 1
  length 1
  angle deg
:documentation
  ASF file generated by Kaydara
:root
  axis xyz
  order  tx ty tz rx ry rz
  position 0 0 0
  orientation 0 0 0
:bonedata
  begin
    id 1
    name lfemurDummy
    direction 0.61522 -0.761478 0.204097
    length 5.68318
    axis 0 -0 0 xyz
  end
  begin
    id 2
    name lfemur
    direction 0.34202 -0.939693 -5.84747e-008
    length 16.9147
    axis 0 -0 20 xyz
    dof rx ry rz
    limits( -inf , inf )
( -inf , inf )
( -inf , inf )

  end
  begin
    id 3
    name ltibia
    direction 0.34202 -0.939693 1.20839e-009
    length 18.0532
    axis 0 -0 20 xyz
    dof rz ry rx
    limits( -inf , inf )
( -inf , inf )
( -inf , inf )

  end
  begin
    id 4
    name lfoot
    direction 0.0841971 -0.23133 0.969225
    length 5.23822
    axis -90 7.62852e-016 20 xyz
    dof ry rx rz
    limits( -inf , inf )
( -inf , inf )
( -inf , inf )

  end
  begin
    id 5
    name ltoes
    direction 0 0 0
    length 0
    axis 0 0 0 xyz
    dof rz ry rx
    limits( -inf , inf )
( -inf , inf )
( -inf , inf )

  end
  begin
    id 6
    name rfemurDummy
    direction -0.625247 -0.75382 0.202044
    length 5.74091
    axis 0 -0 0 xyz
  end
  begin
    id 7
    name rfemur
    direction -0.34202 -0.939693 -1.47013e-008
    length 16.4922
    axis 0 -0 -20 xyz
    dof rx ry rz
    limits( -inf , inf )
( -inf , inf )
( -inf , inf )

  end
  begin
    id 8
    name rtibia
    direction -0.34202 -0.939693 -7.74345e-010
    length 18.2421
    axis 0 -0 -20 xyz
    dof rz ry rx
    limits( -inf , inf )
( -inf , inf )
( -inf , inf )

  end
  begin
    id 9
    name rfoot
    direction -0.124331 -0.341598 0.931586
    length 5.45787
    axis -90 -7.62852e-016 -20 xyz
    dof ry rx rz
    limits( -inf , inf )
( -inf , inf )
( -inf , inf )

  end
  begin
    id 10
    name rtoes
    direction 0 0 0
    length 0
    axis 0 0 0 xyz
    dof rz ry rx
    limits( -inf , inf )
( -inf , inf )
( -inf , inf )

  end
  begin
    id 11
    name lowerbackDummy
    direction 0 0 0
    length 0
    axis 0 -0 0 xyz
  end
  begin
    id 12
    name lowerback
    direction -0.0218484 0.994884 -0.0986304
    length 4.45607
    axis 0 -0 0 xyz
    dof rx ry rz
    limits( -inf , inf )
( -inf , inf )
( -inf , inf )

  end
  begin
    id 13
    name upperback
    direction -0.00973057 0.999717 -0.0217111
    length 4.47449
    axis 0 -0 0 xyz
    dof rx ry rz
    limits( -inf , inf )
( -inf , inf )
( -inf , inf )

  end
  begin
    id 14
    name thorax
    direction -0.000928171 0.999699 0.0245198
    length 4.50973
    axis 0 -0 0 xyz
    dof rx ry rz
    limits( -inf , inf )
( -inf , inf )
( -inf , inf )

  end
  begin
    id 15
    name rclavicle
    direction -0.9009 0.425937 -0.0834055
    length 7.28587
    axis 0 -0 0 xyz
    dof rx ry rz
    limits( -inf , inf )
( -inf , inf )
( -inf , inf )

  end
  begin
    id 16
    name rhumerus
    direction -1 -2.23604e-007 -1.42637e-007
    length 13.5704
    axis 180 30 90 xyz
    dof rx ry rz
    limits( -inf , inf )
( -inf , inf )
( -inf , inf )

  end
  begin
    id 17
    name rradius
    direction -1 5.68281e-008 -4.4952e-007
    length 8.06782
    axis 180 30 90 xyz
    dof rz ry rx
    limits( -inf , inf )
( -inf , inf )
( -inf , inf )

  end
  begin
    id 18
    name rwrist
    direction -1 1.51393e-007 1.38143e-007
    length 4.03391
    axis -90 -90 0 xyz
    dof rz rx ry
    limits( -inf , inf )
( -inf , inf )
( -inf , inf )

  end
  begin
    id 19
    name rthumb
    direction 0 0 0
    length 0
    axis 0 0 0 xyz
    dof ry rx rz
    limits( -inf , inf )
( -inf , inf )
( -inf , inf )

  end
  begin
    id 20
    name rhand
    direction -1 -3.34077e-007 -5.59631e-007
    length 1.29744
    axis -90 -90 0 xyz
    dof ry rx rz
    limits( -inf , inf )
( -inf , inf )
( -inf , inf )

  end
  begin
    id 21
    name rfingers
    direction 0 0 0
    length 0
    axis 0 0 0 xyz
    dof rz ry rx
    limits( -inf , inf )
( -inf , inf )
( -inf , inf )

  end
  begin
    id 22
    name lclavicle
    direction 0.940017 0.332249 -0.0773232
    length 8.29589
    axis 0 -0 0 xyz
    dof rx ry rz
    limits( -inf , inf )
( -inf , inf )
( -inf , inf )

  end
  begin
    id 23
    name lhumerus
    direction 1 7.41158e-008 -1.44768e-008
    length 12.0042
    axis 180 -30 -90 xyz
    dof rx ry rz
    limits( -inf , inf )
( -inf , inf )
( -inf , inf )

  end
  begin
    id 24
    name lradius
    direction 1 -1.32972e-007 3.10821e-007
    length 8.1902
    axis 180 -30 -90 xyz
    dof rz ry rx
    limits( -inf , inf )
( -inf , inf )
( -inf , inf )

  end
  begin
    id 25
    name lwrist
    direction 1 3.08957e-007 4.01394e-007
    length 4.09509
    axis -90 90 0 xyz
    dof rz rx ry
    limits( -inf , inf )
( -inf , inf )
( -inf , inf )

  end
  begin
    id 26
    name lthumb
    direction 0 0 0
    length 0
    axis 0 0 0 xyz
    dof ry rx rz
    limits( -inf , inf )
( -inf , inf )
( -inf , inf )

  end
  begin
    id 27
    name lhand
    direction 1 -1.64125e-007 -6.99514e-007
    length 1.37229
    axis -90 90 0 xyz
    dof ry rx rz
    limits( -inf , inf )
( -inf , inf )
( -inf , inf )

  end
  begin
    id 28
    name lfingers
    direction 0 0 0
    length 0
    axis 0 0 0 xyz
    dof rz ry rx
    limits( -inf , inf )
( -inf , inf )
( -inf , inf )

  end
  begin
    id 29
    name lowerneck
    direction -0.030798 0.998024 0.0547665
    length 3.93918
    axis 0 -0 0 xyz
    dof rx ry rz
    limits( -inf , inf )
( -inf , inf )
( -inf , inf )

  end
  begin
    id 30
    name upperneck
    direction 0.0531588 0.996611 -0.0627736
    length 3.95491
    axis 0 -0 0 xyz
    dof rx ry rz
    limits( -inf , inf )
( -inf , inf )
( -inf , inf )

  end
  begin
    id 31
    name head
    direction 0 0 0
    length 0
    axis 0 0 0 xyz
    dof rx ry rz
    limits( -inf , inf )
( -inf , inf )
( -inf , inf )

  end
:hierarchy
  begin
    root lfemurDummy rfemurDummy lowerbackDummy
    lfemurDummy lfemur
    lfemur ltibia
    ltibia lfoot
    lfoot ltoes
    rfemurDummy rfemur
    rfemur rtibia
    rtibia rfoot
    rfoot rtoes
    lowerbackDummy lowerback
    lowerback upperback
    upperback thorax
    thorax rclavicle lclavicle lowerneck
    rclavicle rhumerus
    rhumerus rradius
    rradius rwrist
    rwrist rthumb rhand
    rhand rfingers
    lclavicle lhumerus
    lhumerus lradius
    lradius lwrist
    lwrist lthumb lhand
    lhand lfingers
    lowerneck upperneck
    upperneck head
  end

:SAMPLES-PER-SECOND 30
:FULLY-SPECIFIED
:DEGREES
57
root  0.7331933562 37.0919986 9.924422287 9.369003296 8.610992432 -1.533996582
lowerback  13.09119987 4.872099876 -2.993069887
upperback  3.563040018 5.766210079 -7.199180126
thorax  -3.079950094 2.903290033 -6.818540096
lowerneck  2.982599974 1.182379961 -12.73649979
upperneck  6.270830154 0.7731230259 14.88770008
head  1.18848002 0.3340190053 6.66203022
lclavicle  0 -9.442270133e-015 7.951389973e-016
lhumerus  24.16320038 -5.911419868 66.59690094
lradius  1.781603469e-031 -3.048726475e-031 120.3010025
lwrist  -1.412450015e-030 -8.827812596e-032 21.21260071
lhand  -1.496451383e-031 -27.76390076 20.11240005
lfingers  90 7.125020027 -90
lthumb  89.89689403 5.08795885 91.16245106
rclavicle  0 -9.442270133e-015 7.951389973e-016
rhumerus  8.142689705 -13.00129986 -18.29380035
rradius  1.36845457e-032 3.528472383e-031 87.77899933
rwrist  7.062250077e-031 -1.765562519e-031 -9.514780045
rhand  -7.920061211e-032 -33.2840004 9.303460121
rfingers  -90 -7.125020027 -90
rthumb  -92.93752616 -24.25625642 -97.11982154
rfemur  -0.2929620147 -3.181600094 26.65139961
rtibia  -0 0 51.3993988
rfoot  -0 -22.99530029 -21.90740013
rtoes  5.373923086 19.29304026 -105.8922705
lfemur  -60.87730026 -11.72280025 -2.537650108
ltibia  -0 0 48.33929825
lfoot  -0 14.35309982 -18.23270035
ltoes  -4.250644065 -19.5611806 -102.515957
58
root  0.5343066895 37.23999985 9.864910757 9.563995361 9.61000061 -1.294006348
lowerback  13.55169964 5.162960052 -2.76609993
upperback  3.715169907 6.156509876 -7.348790169
thorax  -3.088880062 3.10323 -7.207630157
lowerneck  3.037590027 1.001320004 -12.47179985
upperneck  7.086460114 0.4712609947 14.69519997
head  1.460749984 0.1937640011 6.565480232
lclavicle  0 -9.442270133e-015 7.951389973e-016
lhumerus  23.56850052 -5.847899914 66.39279938
lradius  1.757069618e-031 -3.062931667e-031 119.8410034
lwrist  0 1.765562519e-031 21.20059967
lhand  -1.496451383e-031 -27.76390076 20.11240005
lfingers  90 7.125020027 -90
lthumb  89.89689403 5.08795885 91.16245106
rclavicle  0 -9.442270133e-015 7.951389973e-016
rhumerus  13.22439957 -13.57439995 -16.86949921
rradius  6.563931127e-032 3.469580972e-031 79.28710175
rwrist  7.062250077e-031 -0 -10.70090008
rhand  -7.920061211e-032 -33.2840004 9.303460121
rfingers  -90 -7.125020027 -90
rthumb  -92.93752616 -24.25625642 -97.11982154
rfemur  -0.3787289858 -3.696810007 26.60449982
rtibia  -0 0 50.43429947
rfoot  -0 -25.3798008 -26.49539948
rtoes  5.373923086 19.29304026 -105.8922705
lfemur  -60.67399979 -11.70030022 -3.200779915
ltibia  -0 0 47.39400101
lfoot  -0 14.83679962 -16.98139954
ltoes  -4.250644065 -19.5611806 -102.515957
59
root  0.3517111221 37.3904431 9.83588902 9.76499939 10.61999512 -0.8930053711
lowerback  13.87469959 5.461709976 -2.648509979
upperback  3.83265996 6.550940037 -7.549499989
thorax  -3.05866003 3.30727005 -7.581719875
lowerneck  3.065589905 0.7584530115 -11.92150021
upperneck  8.081959724 0.08133920282 14.52439976
head  1.800959945 0.0225860998 6.42869997
lclavicle  0 -9.442270133e-015 7.951389973e-016
lhumerus  22.86289978 -6.258490086 66.28710175
lradius  1.745992279e-031 -3.069259682e-031 119.6340027
lwrist  -7.062250077e-031 -8.827812596e-032 21.3932991
lhand  -1.496451383e-031 -27.76390076 20.11240005
lfingers  90 7.125020027 -90
lthumb  89.89689403 5.08795885 91.16245106
rclavicle  0 -9.442270133e-015 7.951389973e-016
rhumerus  17.55450058 -14.11979961 -15.73950005
rradius  1.15537747e-031 3.336756949e-031 70.90119934
rwrist  7.062250077e-031 -0 -10.73729992
rhand  -7.920061211e-032 -33.2840004 9.303460121
rfingers  -90 -7.125020027 -90
rthumb  -92.93752616 -24.25625642 -97.11982154
rfemur  -0.2895070016 -4.085440159 26.26670074
rtibia  -0 0 49.26570129
rfoot  -0 -28.0053997 -30.25919914
rtoes  5.373923086 19.29304026 -105.8922705
lfemur  -60.40620041 -11.74839973 -4.164740086
ltibia  -0 0 46.66490173
lfoot  -0 14.60470009 -15.96249962
ltoes  -4.250644065 -19.5611806 -102.515957
60
root  0.1850648893 37.48866705 9.817777468 10.00900269 11.80599976 -0.4559936523
lowerback  14.04780006 5.765920162 -2.537339926
upperback  3.960639954 6.969210148 -7.658349991
thorax  -2.941119909 3.525269985 -7.837910175
lowerneck  3.209300041 0.4706340134 -11.45839977
upperneck  8.958140373 -0.3834809959 14.61680031
head  2.092900038 -0.1835069954 6.388969898
lclavicle  0 -9.442270133e-015 7.951389973e-016
lhumerus  22.18260002 -7.127200127 66.43499756
lradius  1.738433468e-031 -3.073547318e-031 119.4929962
lwrist  -7.062250077e-031 8.827812596e-032 21.0571003
lhand  -1.496451383e-031 -27.76390076 20.11240005
lfingers  90 7.125020027 -90
lthumb  89.89689403 5.08795885 91.16245106
rclavicle  0 -9.442270133e-015 7.951389973e-016
rhumerus  21.30590057 -14.79609966 -14.89540005
rradius  1.62221549e-031 3.136440808e-031 62.65129852
rwrist  0 -0 -9.027609825
rhand  -7.920061211e-032 -33.2840004 9.303460121
rfingers  -90 -7.125020027 -90
rthumb  -92.93752616 -24.25625642 -97.11982154
rfemur  -0.1260450035 -4.513130188 25.83919907
rtibia  -0 0 47.97340012
rfoot  -0 -30.91629982 -32.94680023
rtoes  5.373923086 19.29304026 -105.8922705
lfemur  -60.12919998 -11.92689991 -5.244810104
ltibia  -0 0 46.16640091
lfoot  -0 13.97879982 -15.07429981
ltoes  -4.250644065 -19.5611806 -102.515957
